<svg width="352" height="137" viewBox="0 0 352 137" fill="none" xmlns="http://www.w3.org/2000/svg">
<rect width="352" height="137" rx="6" fill="#323238"/>
<path d="M39.3828 39.125C39.3828 38.8594 39.3411 38.625 39.2578 38.4219C39.1797 38.2135 39.0391 38.026 38.8359 37.8594C38.638 37.6927 38.362 37.5339 38.0078 37.3828C37.6589 37.2318 37.2161 37.0781 36.6797 36.9219C36.1172 36.7552 35.6094 36.5703 35.1562 36.3672C34.7031 36.1589 34.3151 35.9219 33.9922 35.6562C33.6693 35.3906 33.4219 35.0859 33.25 34.7422C33.0781 34.3984 32.9922 34.0052 32.9922 33.5625C32.9922 33.1198 33.0833 32.7109 33.2656 32.3359C33.4479 31.9609 33.7083 31.6354 34.0469 31.3594C34.3906 31.0781 34.7995 30.8594 35.2734 30.7031C35.7474 30.5469 36.276 30.4688 36.8594 30.4688C37.7135 30.4688 38.4375 30.6328 39.0312 30.9609C39.6302 31.2839 40.0859 31.7083 40.3984 32.2344C40.7109 32.7552 40.8672 33.3125 40.8672 33.9062H39.3672C39.3672 33.4792 39.276 33.1016 39.0938 32.7734C38.9115 32.4401 38.6354 32.1797 38.2656 31.9922C37.8958 31.7995 37.4271 31.7031 36.8594 31.7031C36.3229 31.7031 35.8802 31.7839 35.5312 31.9453C35.1823 32.1068 34.9219 32.3255 34.75 32.6016C34.5833 32.8776 34.5 33.1927 34.5 33.5469C34.5 33.7865 34.5495 34.0052 34.6484 34.2031C34.7526 34.3958 34.9115 34.5755 35.125 34.7422C35.3438 34.9089 35.6198 35.0625 35.9531 35.2031C36.2917 35.3438 36.6953 35.4792 37.1641 35.6094C37.8099 35.7917 38.3672 35.9948 38.8359 36.2188C39.3047 36.4427 39.6901 36.6953 39.9922 36.9766C40.2995 37.2526 40.526 37.5677 40.6719 37.9219C40.8229 38.2708 40.8984 38.6667 40.8984 39.1094C40.8984 39.5729 40.8047 39.9922 40.6172 40.3672C40.4297 40.7422 40.1615 41.0625 39.8125 41.3281C39.4635 41.5938 39.0443 41.7995 38.5547 41.9453C38.0703 42.0859 37.5286 42.1562 36.9297 42.1562C36.4036 42.1562 35.8854 42.0833 35.375 41.9375C34.8698 41.7917 34.4089 41.5729 33.9922 41.2812C33.5807 40.9896 33.25 40.6302 33 40.2031C32.7552 39.7708 32.6328 39.2708 32.6328 38.7031H34.1328C34.1328 39.0938 34.2083 39.4297 34.3594 39.7109C34.5104 39.987 34.7161 40.2161 34.9766 40.3984C35.2422 40.5807 35.5417 40.7161 35.875 40.8047C36.2135 40.888 36.5651 40.9297 36.9297 40.9297C37.4557 40.9297 37.901 40.8568 38.2656 40.7109C38.6302 40.5651 38.9062 40.3568 39.0938 40.0859C39.2865 39.8151 39.3828 39.4948 39.3828 39.125ZM47.5859 40.5547V36.2031C47.5859 35.8698 47.5182 35.5807 47.3828 35.3359C47.2526 35.0859 47.0547 34.8932 46.7891 34.7578C46.5234 34.6224 46.1953 34.5547 45.8047 34.5547C45.4401 34.5547 45.1198 34.6172 44.8438 34.7422C44.5729 34.8672 44.3594 35.0312 44.2031 35.2344C44.0521 35.4375 43.9766 35.6562 43.9766 35.8906H42.5312C42.5312 35.5885 42.6094 35.2891 42.7656 34.9922C42.9219 34.6953 43.1458 34.4271 43.4375 34.1875C43.7344 33.9427 44.0885 33.75 44.5 33.6094C44.9167 33.4635 45.3802 33.3906 45.8906 33.3906C46.5052 33.3906 47.0469 33.4948 47.5156 33.7031C47.9896 33.9115 48.3594 34.2266 48.625 34.6484C48.8958 35.0651 49.0312 35.5885 49.0312 36.2188V40.1562C49.0312 40.4375 49.0547 40.737 49.1016 41.0547C49.1536 41.3724 49.2292 41.6458 49.3281 41.875V42H47.8203C47.7474 41.8333 47.6901 41.612 47.6484 41.3359C47.6068 41.0547 47.5859 40.7943 47.5859 40.5547ZM47.8359 36.875L47.8516 37.8906H46.3906C45.9792 37.8906 45.612 37.9245 45.2891 37.9922C44.9661 38.0547 44.6953 38.151 44.4766 38.2812C44.2578 38.4115 44.0911 38.5755 43.9766 38.7734C43.862 38.9661 43.8047 39.1927 43.8047 39.4531C43.8047 39.7188 43.8646 39.9609 43.9844 40.1797C44.1042 40.3984 44.2839 40.5729 44.5234 40.7031C44.7682 40.8281 45.0677 40.8906 45.4219 40.8906C45.8646 40.8906 46.2552 40.7969 46.5938 40.6094C46.9323 40.4219 47.2005 40.1927 47.3984 39.9219C47.6016 39.651 47.7109 39.388 47.7266 39.1328L48.3438 39.8281C48.3073 40.0469 48.2083 40.2891 48.0469 40.5547C47.8854 40.8203 47.6693 41.0755 47.3984 41.3203C47.1328 41.5599 46.8151 41.7604 46.4453 41.9219C46.0807 42.0781 45.6693 42.1562 45.2109 42.1562C44.638 42.1562 44.1354 42.0443 43.7031 41.8203C43.276 41.5964 42.9427 41.2969 42.7031 40.9219C42.4688 40.5417 42.3516 40.1172 42.3516 39.6484C42.3516 39.1953 42.4401 38.7969 42.6172 38.4531C42.7943 38.1042 43.0495 37.8151 43.3828 37.5859C43.7161 37.3516 44.1172 37.1745 44.5859 37.0547C45.0547 36.9349 45.5781 36.875 46.1562 36.875H47.8359ZM52.8672 33.5469V42H51.4219V33.5469H52.8672ZM51.375 32.3125L52.8906 30.0156H54.6328L52.5391 32.3125H51.375ZM60.6016 40.3594V30H62.0547V42H60.7266L60.6016 40.3594ZM54.9141 37.8672V37.7031C54.9141 37.0573 54.9922 36.4714 55.1484 35.9453C55.3099 35.4141 55.5365 34.9583 55.8281 34.5781C56.125 34.1979 56.4766 33.9062 56.8828 33.7031C57.2943 33.4948 57.7526 33.3906 58.2578 33.3906C58.7891 33.3906 59.2526 33.4844 59.6484 33.6719C60.0495 33.8542 60.388 34.1224 60.6641 34.4766C60.9453 34.8255 61.1667 35.2474 61.3281 35.7422C61.4896 36.237 61.6016 36.7969 61.6641 37.4219V38.1406C61.6068 38.7604 61.4948 39.3177 61.3281 39.8125C61.1667 40.3073 60.9453 40.7292 60.6641 41.0781C60.388 41.4271 60.0495 41.6953 59.6484 41.8828C59.2474 42.0651 58.7786 42.1562 58.2422 42.1562C57.7474 42.1562 57.2943 42.0495 56.8828 41.8359C56.4766 41.6224 56.125 41.3229 55.8281 40.9375C55.5365 40.5521 55.3099 40.099 55.1484 39.5781C54.9922 39.0521 54.9141 38.4818 54.9141 37.8672ZM56.3672 37.7031V37.8672C56.3672 38.2891 56.4089 38.6849 56.4922 39.0547C56.5807 39.4245 56.7161 39.75 56.8984 40.0312C57.0807 40.3125 57.3125 40.5339 57.5938 40.6953C57.875 40.8516 58.2109 40.9297 58.6016 40.9297C59.0807 40.9297 59.474 40.8281 59.7812 40.625C60.0938 40.4219 60.3438 40.1536 60.5312 39.8203C60.7188 39.487 60.8646 39.125 60.9688 38.7344V36.8516C60.9062 36.5651 60.8151 36.2891 60.6953 36.0234C60.5807 35.7526 60.4297 35.513 60.2422 35.3047C60.0599 35.0911 59.8333 34.9219 59.5625 34.7969C59.2969 34.6719 58.9818 34.6094 58.6172 34.6094C58.2214 34.6094 57.8802 34.6927 57.5938 34.8594C57.3125 35.0208 57.0807 35.2448 56.8984 35.5312C56.7161 35.8125 56.5807 36.1406 56.4922 36.5156C56.4089 36.8854 56.3672 37.2812 56.3672 37.7031ZM69.2891 40.5547V36.2031C69.2891 35.8698 69.2214 35.5807 69.0859 35.3359C68.9557 35.0859 68.7578 34.8932 68.4922 34.7578C68.2266 34.6224 67.8984 34.5547 67.5078 34.5547C67.1432 34.5547 66.8229 34.6172 66.5469 34.7422C66.276 34.8672 66.0625 35.0312 65.9062 35.2344C65.7552 35.4375 65.6797 35.6562 65.6797 35.8906H64.2344C64.2344 35.5885 64.3125 35.2891 64.4688 34.9922C64.625 34.6953 64.849 34.4271 65.1406 34.1875C65.4375 33.9427 65.7917 33.75 66.2031 33.6094C66.6198 33.4635 67.0833 33.3906 67.5938 33.3906C68.2083 33.3906 68.75 33.4948 69.2188 33.7031C69.6927 33.9115 70.0625 34.2266 70.3281 34.6484C70.599 35.0651 70.7344 35.5885 70.7344 36.2188V40.1562C70.7344 40.4375 70.7578 40.737 70.8047 41.0547C70.8568 41.3724 70.9323 41.6458 71.0312 41.875V42H69.5234C69.4505 41.8333 69.3932 41.612 69.3516 41.3359C69.3099 41.0547 69.2891 40.7943 69.2891 40.5547ZM69.5391 36.875L69.5547 37.8906H68.0938C67.6823 37.8906 67.3151 37.9245 66.9922 37.9922C66.6693 38.0547 66.3984 38.151 66.1797 38.2812C65.9609 38.4115 65.7943 38.5755 65.6797 38.7734C65.5651 38.9661 65.5078 39.1927 65.5078 39.4531C65.5078 39.7188 65.5677 39.9609 65.6875 40.1797C65.8073 40.3984 65.987 40.5729 66.2266 40.7031C66.4714 40.8281 66.7708 40.8906 67.125 40.8906C67.5677 40.8906 67.9583 40.7969 68.2969 40.6094C68.6354 40.4219 68.9036 40.1927 69.1016 39.9219C69.3047 39.651 69.4141 39.388 69.4297 39.1328L70.0469 39.8281C70.0104 40.0469 69.9115 40.2891 69.75 40.5547C69.5885 40.8203 69.3724 41.0755 69.1016 41.3203C68.8359 41.5599 68.5182 41.7604 68.1484 41.9219C67.7839 42.0781 67.3724 42.1562 66.9141 42.1562C66.3411 42.1562 65.8385 42.0443 65.4062 41.8203C64.9792 41.5964 64.6458 41.2969 64.4062 40.9219C64.1719 40.5417 64.0547 40.1172 64.0547 39.6484C64.0547 39.1953 64.1432 38.7969 64.3203 38.4531C64.4974 38.1042 64.7526 37.8151 65.0859 37.5859C65.4193 37.3516 65.8203 37.1745 66.2891 37.0547C66.7578 36.9349 67.2812 36.875 67.8594 36.875H69.5391ZM77.9297 39.7578C77.9297 39.5495 77.8828 39.3568 77.7891 39.1797C77.7005 38.9974 77.5156 38.8333 77.2344 38.6875C76.9583 38.5365 76.5417 38.4062 75.9844 38.2969C75.5156 38.1979 75.0911 38.0807 74.7109 37.9453C74.3359 37.8099 74.0156 37.6458 73.75 37.4531C73.4896 37.2604 73.2891 37.0339 73.1484 36.7734C73.0078 36.513 72.9375 36.2083 72.9375 35.8594C72.9375 35.526 73.0104 35.2109 73.1562 34.9141C73.3073 34.6172 73.5182 34.3542 73.7891 34.125C74.0651 33.8958 74.3958 33.7161 74.7812 33.5859C75.1667 33.4557 75.5964 33.3906 76.0703 33.3906C76.7474 33.3906 77.3255 33.5104 77.8047 33.75C78.2839 33.9896 78.651 34.3099 78.9062 34.7109C79.1615 35.1068 79.2891 35.5469 79.2891 36.0312H77.8438C77.8438 35.7969 77.7734 35.5703 77.6328 35.3516C77.4974 35.1276 77.2969 34.9427 77.0312 34.7969C76.7708 34.651 76.4505 34.5781 76.0703 34.5781C75.6693 34.5781 75.3438 34.6406 75.0938 34.7656C74.849 34.8854 74.6693 35.0391 74.5547 35.2266C74.4453 35.4141 74.3906 35.612 74.3906 35.8203C74.3906 35.9766 74.4167 36.1172 74.4688 36.2422C74.526 36.362 74.625 36.474 74.7656 36.5781C74.9062 36.6771 75.1042 36.7708 75.3594 36.8594C75.6146 36.9479 75.9401 37.0365 76.3359 37.125C77.0286 37.2812 77.599 37.4688 78.0469 37.6875C78.4948 37.9062 78.8281 38.1745 79.0469 38.4922C79.2656 38.8099 79.375 39.1953 79.375 39.6484C79.375 40.0182 79.2969 40.3568 79.1406 40.6641C78.9896 40.9714 78.7682 41.237 78.4766 41.4609C78.1901 41.6797 77.8464 41.8516 77.4453 41.9766C77.0495 42.0964 76.6042 42.1562 76.1094 42.1562C75.3646 42.1562 74.7344 42.0234 74.2188 41.7578C73.7031 41.4922 73.3125 41.1484 73.0469 40.7266C72.7812 40.3047 72.6484 39.8594 72.6484 39.3906H74.1016C74.1224 39.7865 74.237 40.1016 74.4453 40.3359C74.6536 40.5651 74.9089 40.7292 75.2109 40.8281C75.513 40.9219 75.8125 40.9688 76.1094 40.9688C76.5052 40.9688 76.8359 40.9167 77.1016 40.8125C77.3724 40.7083 77.5781 40.5651 77.7188 40.3828C77.8594 40.2005 77.9297 39.9922 77.9297 39.7578Z" fill="#C4C4CC"/>
<path fill-rule="evenodd" clip-rule="evenodd" d="M312 29C305.925 29 301 33.9249 301 40C301 46.0751 305.925 51 312 51C318.075 51 323 46.0751 323 40C323 33.9249 318.075 29 312 29ZM299 40C299 32.8203 304.82 27 312 27C319.18 27 325 32.8203 325 40C325 47.1797 319.18 53 312 53C304.82 53 299 47.1797 299 40Z" fill="#F75A68"/>
<path fill-rule="evenodd" clip-rule="evenodd" d="M307.055 40.0553C307.446 39.6648 308.079 39.6648 308.47 40.0553L312 43.5857L315.53 40.0553C315.921 39.6648 316.554 39.6648 316.945 40.0553C317.335 40.4459 317.335 41.079 316.945 41.4696L312.707 45.7071C312.317 46.0976 311.683 46.0976 311.293 45.7071L307.055 41.4696C306.665 41.079 306.665 40.4459 307.055 40.0553Z" fill="#F75A68"/>
<path fill-rule="evenodd" clip-rule="evenodd" d="M312 34C312.552 34 313 34.4477 313 35L313 45C313 45.5523 312.552 46 312 46C311.448 46 311 45.5523 311 45L311 35C311 34.4477 311.448 34 312 34Z" fill="#F75A68"/>
<path d="M34.0312 78.25H42.5156C44.2552 78.25 45.75 78.5104 47 79.0312C48.2604 79.5521 49.2292 80.3229 49.9062 81.3438C50.5833 82.3646 50.9219 83.6198 50.9219 85.1094C50.9219 86.3281 50.7135 87.375 50.2969 88.25C49.8906 89.1146 49.3125 89.8385 48.5625 90.4219C47.8229 90.9948 46.9531 91.4531 45.9531 91.7969L44.4688 92.5781H37.0938L37.0625 88.9219H42.5469C43.3698 88.9219 44.0521 88.776 44.5938 88.4844C45.1354 88.1927 45.5417 87.7865 45.8125 87.2656C46.0938 86.7448 46.2344 86.1406 46.2344 85.4531C46.2344 84.724 46.099 84.0938 45.8281 83.5625C45.5573 83.0312 45.1458 82.625 44.5938 82.3438C44.0417 82.0625 43.349 81.9219 42.5156 81.9219H38.7188V101H34.0312V78.25ZM46.75 101L41.5625 90.8594L46.5156 90.8281L51.7656 100.781V101H46.75ZM63.4531 74.6406V79.25H61.0156V74.6406H63.4531ZM63.1562 100.156V104.359H60.7188V100.156H63.1562ZM64.875 95.0312C64.875 94.4375 64.7656 93.9323 64.5469 93.5156C64.3385 93.099 63.9948 92.7292 63.5156 92.4062C63.0469 92.0833 62.4115 91.7708 61.6094 91.4688C60.2552 90.9479 59.0625 90.3958 58.0312 89.8125C57.0104 89.2188 56.2135 88.4844 55.6406 87.6094C55.0677 86.724 54.7812 85.6042 54.7812 84.25C54.7812 82.9583 55.0885 81.8385 55.7031 80.8906C56.3177 79.9427 57.1667 79.2135 58.25 78.7031C59.3438 78.1823 60.6146 77.9219 62.0625 77.9219C63.1667 77.9219 64.1667 78.0885 65.0625 78.4219C65.9583 78.7448 66.7292 79.224 67.375 79.8594C68.0208 80.4844 68.5156 81.25 68.8594 82.1562C69.2031 83.0625 69.375 84.099 69.375 85.2656H64.8906C64.8906 84.6406 64.8229 84.0885 64.6875 83.6094C64.5521 83.1302 64.3542 82.7292 64.0938 82.4062C63.8438 82.0833 63.5417 81.8438 63.1875 81.6875C62.8333 81.5208 62.4427 81.4375 62.0156 81.4375C61.3802 81.4375 60.8594 81.5625 60.4531 81.8125C60.0469 82.0625 59.75 82.401 59.5625 82.8281C59.3854 83.2448 59.2969 83.724 59.2969 84.2656C59.2969 84.7969 59.3906 85.2604 59.5781 85.6562C59.776 86.0521 60.1146 86.4167 60.5938 86.75C61.0729 87.0729 61.7292 87.4062 62.5625 87.75C63.9167 88.2708 65.1042 88.8333 66.125 89.4375C67.1458 90.0417 67.9427 90.7812 68.5156 91.6562C69.0885 92.5312 69.375 93.6458 69.375 95C69.375 96.3438 69.0625 97.4896 68.4375 98.4375C67.8125 99.375 66.9375 100.094 65.8125 100.594C64.6875 101.083 63.3854 101.328 61.9062 101.328C60.9479 101.328 59.9948 101.203 59.0469 100.953C58.099 100.693 57.2396 100.276 56.4688 99.7031C55.6979 99.1302 55.0833 98.3698 54.625 97.4219C54.1667 96.4635 53.9375 95.2865 53.9375 93.8906H58.4375C58.4375 94.651 58.5365 95.2865 58.7344 95.7969C58.9323 96.2969 59.1927 96.6979 59.5156 97C59.849 97.2917 60.224 97.5 60.6406 97.625C61.0573 97.75 61.4792 97.8125 61.9062 97.8125C62.5729 97.8125 63.1198 97.6927 63.5469 97.4531C63.9844 97.2135 64.3125 96.8854 64.5312 96.4688C64.7604 96.0417 64.875 95.5625 64.875 95.0312ZM91.375 78.2031V101H86.875V83.3906L81.4688 85.1094V81.5625L90.8906 78.2031H91.375ZM99.1875 98.8281C99.1875 98.1615 99.4167 97.6042 99.875 97.1562C100.344 96.7083 100.964 96.4844 101.734 96.4844C102.505 96.4844 103.12 96.7083 103.578 97.1562C104.047 97.6042 104.281 98.1615 104.281 98.8281C104.281 99.4948 104.047 100.052 103.578 100.5C103.12 100.948 102.505 101.172 101.734 101.172C100.964 101.172 100.344 100.948 99.875 100.5C99.4167 100.052 99.1875 99.4948 99.1875 98.8281ZM123.625 97.4844V101H108.062V98L115.422 90.1094C116.161 89.2865 116.745 88.5625 117.172 87.9375C117.599 87.3021 117.906 86.7344 118.094 86.2344C118.292 85.724 118.391 85.2396 118.391 84.7812C118.391 84.0938 118.276 83.5052 118.047 83.0156C117.818 82.5156 117.479 82.1302 117.031 81.8594C116.594 81.5885 116.052 81.4531 115.406 81.4531C114.719 81.4531 114.125 81.6198 113.625 81.9531C113.135 82.2865 112.76 82.75 112.5 83.3438C112.25 83.9375 112.125 84.6094 112.125 85.3594H107.609C107.609 84.0052 107.932 82.7656 108.578 81.6406C109.224 80.5052 110.135 79.6042 111.312 78.9375C112.49 78.2604 113.885 77.9219 115.5 77.9219C117.094 77.9219 118.438 78.1823 119.531 78.7031C120.635 79.2135 121.469 79.9531 122.031 80.9219C122.604 81.8802 122.891 83.026 122.891 84.3594C122.891 85.1094 122.771 85.8438 122.531 86.5625C122.292 87.2708 121.948 87.9792 121.5 88.6875C121.062 89.3854 120.531 90.0938 119.906 90.8125C119.281 91.5312 118.589 92.276 117.828 93.0469L113.875 97.4844H123.625ZM130.672 90.6406L127.078 89.7812L128.375 78.25H141.156V81.8906H132.078L131.516 86.9375C131.818 86.7604 132.276 86.5729 132.891 86.375C133.505 86.1667 134.193 86.0625 134.953 86.0625C136.057 86.0625 137.036 86.2344 137.891 86.5781C138.745 86.9219 139.469 87.4219 140.062 88.0781C140.667 88.7344 141.125 89.5365 141.438 90.4844C141.75 91.4323 141.906 92.5052 141.906 93.7031C141.906 94.7135 141.75 95.6771 141.438 96.5938C141.125 97.5 140.651 98.3125 140.016 99.0312C139.38 99.7396 138.583 100.297 137.625 100.703C136.667 101.109 135.531 101.312 134.219 101.312C133.24 101.312 132.292 101.167 131.375 100.875C130.469 100.583 129.651 100.151 128.922 99.5781C128.203 99.0052 127.625 98.3125 127.188 97.5C126.76 96.6771 126.536 95.7396 126.516 94.6875H130.984C131.047 95.3333 131.214 95.8906 131.484 96.3594C131.766 96.8177 132.135 97.1719 132.594 97.4219C133.052 97.6719 133.589 97.7969 134.203 97.7969C134.776 97.7969 135.266 97.6875 135.672 97.4688C136.078 97.25 136.406 96.9479 136.656 96.5625C136.906 96.1667 137.089 95.7083 137.203 95.1875C137.328 94.6562 137.391 94.0833 137.391 93.4688C137.391 92.8542 137.318 92.2969 137.172 91.7969C137.026 91.2969 136.802 90.8646 136.5 90.5C136.198 90.1354 135.812 89.8542 135.344 89.6562C134.885 89.4583 134.349 89.3594 133.734 89.3594C132.901 89.3594 132.255 89.4896 131.797 89.75C131.349 90.0104 130.974 90.3073 130.672 90.6406ZM148 97.5781H148.297C149.547 97.5781 150.62 97.4271 151.516 97.125C152.422 96.8125 153.167 96.3646 153.75 95.7812C154.333 95.1979 154.766 94.4844 155.047 93.6406C155.328 92.7865 155.469 91.8177 155.469 90.7344V86.4219C155.469 85.599 155.385 84.875 155.219 84.25C155.062 83.625 154.833 83.1094 154.531 82.7031C154.24 82.2865 153.896 81.974 153.5 81.7656C153.115 81.5573 152.688 81.4531 152.219 81.4531C151.719 81.4531 151.276 81.5781 150.891 81.8281C150.505 82.0677 150.177 82.3958 149.906 82.8125C149.646 83.2292 149.443 83.7083 149.297 84.25C149.161 84.7812 149.094 85.3385 149.094 85.9219C149.094 86.5052 149.161 87.0625 149.297 87.5938C149.432 88.1146 149.635 88.5781 149.906 88.9844C150.177 89.3802 150.516 89.6979 150.922 89.9375C151.328 90.1667 151.807 90.2812 152.359 90.2812C152.891 90.2812 153.365 90.1823 153.781 89.9844C154.208 89.776 154.568 89.5052 154.859 89.1719C155.161 88.8385 155.391 88.4688 155.547 88.0625C155.714 87.6562 155.797 87.2448 155.797 86.8281L157.281 87.6406C157.281 88.3698 157.125 89.0885 156.812 89.7969C156.5 90.5052 156.062 91.151 155.5 91.7344C154.948 92.3073 154.307 92.7656 153.578 93.1094C152.849 93.4531 152.068 93.625 151.234 93.625C150.172 93.625 149.229 93.4323 148.406 93.0469C147.583 92.651 146.885 92.1094 146.312 91.4219C145.75 90.724 145.323 89.9115 145.031 88.9844C144.74 88.0573 144.594 87.0521 144.594 85.9688C144.594 84.8646 144.771 83.8281 145.125 82.8594C145.49 81.8906 146.005 81.0365 146.672 80.2969C147.349 79.5573 148.156 78.9792 149.094 78.5625C150.042 78.1354 151.094 77.9219 152.25 77.9219C153.406 77.9219 154.458 78.1458 155.406 78.5938C156.354 79.0417 157.167 79.6771 157.844 80.5C158.521 81.3125 159.042 82.2865 159.406 83.4219C159.781 84.5573 159.969 85.8177 159.969 87.2031V88.7656C159.969 90.2448 159.807 91.6198 159.484 92.8906C159.172 94.1615 158.698 95.3125 158.062 96.3438C157.438 97.3646 156.656 98.2396 155.719 98.9688C154.792 99.6979 153.714 100.255 152.484 100.641C151.255 101.026 149.88 101.219 148.359 101.219H148V97.5781ZM167.641 97.2031L167.625 100.219C167.625 101.375 167.333 102.542 166.75 103.719C166.177 104.896 165.448 105.859 164.562 106.609L162.219 105.406C162.479 104.927 162.734 104.448 162.984 103.969C163.234 103.49 163.443 102.964 163.609 102.391C163.776 101.818 163.859 101.167 163.859 100.438V97.2031H167.641ZM186.375 87.625V91.5625C186.375 93.2708 186.193 94.7448 185.828 95.9844C185.464 97.2135 184.938 98.224 184.25 99.0156C183.573 99.7969 182.766 100.375 181.828 100.75C180.891 101.125 179.849 101.312 178.703 101.312C177.786 101.312 176.932 101.198 176.141 100.969C175.349 100.729 174.635 100.359 174 99.8594C173.375 99.3594 172.833 98.7292 172.375 97.9688C171.927 97.1979 171.583 96.2812 171.344 95.2188C171.104 94.1562 170.984 92.9375 170.984 91.5625V87.625C170.984 85.9167 171.167 84.4531 171.531 83.2344C171.906 82.0052 172.432 81 173.109 80.2188C173.797 79.4375 174.609 78.8646 175.547 78.5C176.484 78.125 177.526 77.9375 178.672 77.9375C179.589 77.9375 180.438 78.0573 181.219 78.2969C182.01 78.526 182.724 78.8854 183.359 79.375C183.995 79.8646 184.536 80.4948 184.984 81.2656C185.432 82.026 185.776 82.9375 186.016 84C186.255 85.0521 186.375 86.2604 186.375 87.625ZM181.859 92.1562V87.0156C181.859 86.1927 181.812 85.474 181.719 84.8594C181.635 84.2448 181.505 83.724 181.328 83.2969C181.151 82.8594 180.932 82.5052 180.672 82.2344C180.411 81.9635 180.115 81.7656 179.781 81.6406C179.448 81.5156 179.078 81.4531 178.672 81.4531C178.161 81.4531 177.708 81.5521 177.312 81.75C176.927 81.9479 176.599 82.2656 176.328 82.7031C176.057 83.1302 175.849 83.7031 175.703 84.4219C175.568 85.1302 175.5 85.9948 175.5 87.0156V92.1562C175.5 92.9792 175.542 93.7031 175.625 94.3281C175.719 94.9531 175.854 95.4896 176.031 95.9375C176.219 96.375 176.438 96.7344 176.688 97.0156C176.948 97.2865 177.245 97.4844 177.578 97.6094C177.922 97.7344 178.297 97.7969 178.703 97.7969C179.203 97.7969 179.646 97.6979 180.031 97.5C180.427 97.2917 180.76 96.9688 181.031 96.5312C181.312 96.0833 181.521 95.5 181.656 94.7812C181.792 94.0625 181.859 93.1875 181.859 92.1562ZM204.75 87.625V91.5625C204.75 93.2708 204.568 94.7448 204.203 95.9844C203.839 97.2135 203.312 98.224 202.625 99.0156C201.948 99.7969 201.141 100.375 200.203 100.75C199.266 101.125 198.224 101.312 197.078 101.312C196.161 101.312 195.307 101.198 194.516 100.969C193.724 100.729 193.01 100.359 192.375 99.8594C191.75 99.3594 191.208 98.7292 190.75 97.9688C190.302 97.1979 189.958 96.2812 189.719 95.2188C189.479 94.1562 189.359 92.9375 189.359 91.5625V87.625C189.359 85.9167 189.542 84.4531 189.906 83.2344C190.281 82.0052 190.807 81 191.484 80.2188C192.172 79.4375 192.984 78.8646 193.922 78.5C194.859 78.125 195.901 77.9375 197.047 77.9375C197.964 77.9375 198.812 78.0573 199.594 78.2969C200.385 78.526 201.099 78.8854 201.734 79.375C202.37 79.8646 202.911 80.4948 203.359 81.2656C203.807 82.026 204.151 82.9375 204.391 84C204.63 85.0521 204.75 86.2604 204.75 87.625ZM200.234 92.1562V87.0156C200.234 86.1927 200.188 85.474 200.094 84.8594C200.01 84.2448 199.88 83.724 199.703 83.2969C199.526 82.8594 199.307 82.5052 199.047 82.2344C198.786 81.9635 198.49 81.7656 198.156 81.6406C197.823 81.5156 197.453 81.4531 197.047 81.4531C196.536 81.4531 196.083 81.5521 195.688 81.75C195.302 81.9479 194.974 82.2656 194.703 82.7031C194.432 83.1302 194.224 83.7031 194.078 84.4219C193.943 85.1302 193.875 85.9948 193.875 87.0156V92.1562C193.875 92.9792 193.917 93.7031 194 94.3281C194.094 94.9531 194.229 95.4896 194.406 95.9375C194.594 96.375 194.812 96.7344 195.062 97.0156C195.323 97.2865 195.62 97.4844 195.953 97.6094C196.297 97.7344 196.672 97.7969 197.078 97.7969C197.578 97.7969 198.021 97.6979 198.406 97.5C198.802 97.2917 199.135 96.9688 199.406 96.5312C199.688 96.0833 199.896 95.5 200.031 94.7812C200.167 94.0625 200.234 93.1875 200.234 92.1562Z" fill="#E1E1E6"/>
</svg>
