<svg width="352" height="137" viewBox="0 0 352 137" fill="none" xmlns="http://www.w3.org/2000/svg">
<rect width="352" height="137" rx="6" fill="#323238"/>
<path d="M40.5469 40.7734V42H34.5234V40.7734H40.5469ZM34.8281 30.625V42H33.3203V30.625H34.8281ZM39.75 35.5156V36.7422H34.5234V35.5156H39.75ZM40.4688 30.625V31.8594H34.5234V30.625H40.4688ZM43.6406 35.3516V42H42.1953V33.5469H43.5625L43.6406 35.3516ZM43.2969 37.4531L42.6953 37.4297C42.7005 36.8516 42.7865 36.3177 42.9531 35.8281C43.1198 35.3333 43.3542 34.9036 43.6562 34.5391C43.9583 34.1745 44.3177 33.8932 44.7344 33.6953C45.1562 33.4922 45.6224 33.3906 46.1328 33.3906C46.5495 33.3906 46.9245 33.4479 47.2578 33.5625C47.5911 33.6719 47.875 33.849 48.1094 34.0938C48.349 34.3385 48.5312 34.6562 48.6562 35.0469C48.7812 35.4323 48.8438 35.9036 48.8438 36.4609V42H47.3906V36.4453C47.3906 36.0026 47.3255 35.6484 47.1953 35.3828C47.0651 35.112 46.875 34.9167 46.625 34.7969C46.375 34.6719 46.0677 34.6094 45.7031 34.6094C45.3438 34.6094 45.0156 34.6849 44.7188 34.8359C44.4271 34.987 44.1745 35.1953 43.9609 35.4609C43.7526 35.7266 43.5885 36.0312 43.4688 36.375C43.3542 36.7135 43.2969 37.0729 43.2969 37.4531ZM54.5781 33.5469V34.6562H50.0078V33.5469H54.5781ZM51.5547 31.4922H53V39.9062C53 40.1927 53.0443 40.4089 53.1328 40.5547C53.2214 40.7005 53.3359 40.7969 53.4766 40.8438C53.6172 40.8906 53.7682 40.9141 53.9297 40.9141C54.0495 40.9141 54.1745 40.9036 54.3047 40.8828C54.4401 40.8568 54.5417 40.8359 54.6094 40.8203L54.6172 42C54.5026 42.0365 54.3516 42.0703 54.1641 42.1016C53.9818 42.138 53.7604 42.1562 53.5 42.1562C53.1458 42.1562 52.8203 42.0859 52.5234 41.9453C52.2266 41.8047 51.9896 41.5703 51.8125 41.2422C51.6406 40.9089 51.5547 40.4609 51.5547 39.8984V31.4922ZM57.7188 34.875V42H56.2734V33.5469H57.6797L57.7188 34.875ZM60.3594 33.5L60.3516 34.8438C60.2318 34.8177 60.1172 34.8021 60.0078 34.7969C59.9036 34.7865 59.7839 34.7812 59.6484 34.7812C59.3151 34.7812 59.0208 34.8333 58.7656 34.9375C58.5104 35.0417 58.2943 35.1875 58.1172 35.375C57.9401 35.5625 57.7995 35.7865 57.6953 36.0469C57.5964 36.3021 57.5312 36.5833 57.5 36.8906L57.0938 37.125C57.0938 36.6146 57.1432 36.1354 57.2422 35.6875C57.3464 35.2396 57.5052 34.8438 57.7188 34.5C57.9323 34.151 58.2031 33.8802 58.5312 33.6875C58.8646 33.4896 59.2604 33.3906 59.7188 33.3906C59.8229 33.3906 59.9427 33.4036 60.0781 33.4297C60.2135 33.4505 60.3073 33.474 60.3594 33.5ZM66.3672 40.5547V36.2031C66.3672 35.8698 66.2995 35.5807 66.1641 35.3359C66.0339 35.0859 65.8359 34.8932 65.5703 34.7578C65.3047 34.6224 64.9766 34.5547 64.5859 34.5547C64.2214 34.5547 63.901 34.6172 63.625 34.7422C63.3542 34.8672 63.1406 35.0312 62.9844 35.2344C62.8333 35.4375 62.7578 35.6562 62.7578 35.8906H61.3125C61.3125 35.5885 61.3906 35.2891 61.5469 34.9922C61.7031 34.6953 61.9271 34.4271 62.2188 34.1875C62.5156 33.9427 62.8698 33.75 63.2812 33.6094C63.6979 33.4635 64.1615 33.3906 64.6719 33.3906C65.2865 33.3906 65.8281 33.4948 66.2969 33.7031C66.7708 33.9115 67.1406 34.2266 67.4062 34.6484C67.6771 35.0651 67.8125 35.5885 67.8125 36.2188V40.1562C67.8125 40.4375 67.8359 40.737 67.8828 41.0547C67.9349 41.3724 68.0104 41.6458 68.1094 41.875V42H66.6016C66.5286 41.8333 66.4714 41.612 66.4297 41.3359C66.388 41.0547 66.3672 40.7943 66.3672 40.5547ZM66.6172 36.875L66.6328 37.8906H65.1719C64.7604 37.8906 64.3932 37.9245 64.0703 37.9922C63.7474 38.0547 63.4766 38.151 63.2578 38.2812C63.0391 38.4115 62.8724 38.5755 62.7578 38.7734C62.6432 38.9661 62.5859 39.1927 62.5859 39.4531C62.5859 39.7188 62.6458 39.9609 62.7656 40.1797C62.8854 40.3984 63.0651 40.5729 63.3047 40.7031C63.5495 40.8281 63.849 40.8906 64.2031 40.8906C64.6458 40.8906 65.0365 40.7969 65.375 40.6094C65.7135 40.4219 65.9818 40.1927 66.1797 39.9219C66.3828 39.651 66.4922 39.388 66.5078 39.1328L67.125 39.8281C67.0885 40.0469 66.9896 40.2891 66.8281 40.5547C66.6667 40.8203 66.4505 41.0755 66.1797 41.3203C65.9141 41.5599 65.5964 41.7604 65.2266 41.9219C64.862 42.0781 64.4505 42.1562 63.9922 42.1562C63.4193 42.1562 62.9167 42.0443 62.4844 41.8203C62.0573 41.5964 61.724 41.2969 61.4844 40.9219C61.25 40.5417 61.1328 40.1172 61.1328 39.6484C61.1328 39.1953 61.2214 38.7969 61.3984 38.4531C61.5755 38.1042 61.8307 37.8151 62.1641 37.5859C62.4974 37.3516 62.8984 37.1745 63.3672 37.0547C63.8359 36.9349 64.3594 36.875 64.9375 36.875H66.6172ZM75.4141 40.3594V30H76.8672V42H75.5391L75.4141 40.3594ZM69.7266 37.8672V37.7031C69.7266 37.0573 69.8047 36.4714 69.9609 35.9453C70.1224 35.4141 70.349 34.9583 70.6406 34.5781C70.9375 34.1979 71.2891 33.9062 71.6953 33.7031C72.1068 33.4948 72.5651 33.3906 73.0703 33.3906C73.6016 33.3906 74.0651 33.4844 74.4609 33.6719C74.862 33.8542 75.2005 34.1224 75.4766 34.4766C75.7578 34.8255 75.9792 35.2474 76.1406 35.7422C76.3021 36.237 76.4141 36.7969 76.4766 37.4219V38.1406C76.4193 38.7604 76.3073 39.3177 76.1406 39.8125C75.9792 40.3073 75.7578 40.7292 75.4766 41.0781C75.2005 41.4271 74.862 41.6953 74.4609 41.8828C74.0599 42.0651 73.5911 42.1562 73.0547 42.1562C72.5599 42.1562 72.1068 42.0495 71.6953 41.8359C71.2891 41.6224 70.9375 41.3229 70.6406 40.9375C70.349 40.5521 70.1224 40.099 69.9609 39.5781C69.8047 39.0521 69.7266 38.4818 69.7266 37.8672ZM71.1797 37.7031V37.8672C71.1797 38.2891 71.2214 38.6849 71.3047 39.0547C71.3932 39.4245 71.5286 39.75 71.7109 40.0312C71.8932 40.3125 72.125 40.5339 72.4062 40.6953C72.6875 40.8516 73.0234 40.9297 73.4141 40.9297C73.8932 40.9297 74.2865 40.8281 74.5938 40.625C74.9062 40.4219 75.1562 40.1536 75.3438 39.8203C75.5312 39.487 75.6771 39.125 75.7812 38.7344V36.8516C75.7188 36.5651 75.6276 36.2891 75.5078 36.0234C75.3932 35.7526 75.2422 35.513 75.0547 35.3047C74.8724 35.0911 74.6458 34.9219 74.375 34.7969C74.1094 34.6719 73.7943 34.6094 73.4297 34.6094C73.0339 34.6094 72.6927 34.6927 72.4062 34.8594C72.125 35.0208 71.8932 35.2448 71.7109 35.5312C71.5286 35.8125 71.3932 36.1406 71.3047 36.5156C71.2214 36.8854 71.1797 37.2812 71.1797 37.7031ZM84.1016 40.5547V36.2031C84.1016 35.8698 84.0339 35.5807 83.8984 35.3359C83.7682 35.0859 83.5703 34.8932 83.3047 34.7578C83.0391 34.6224 82.7109 34.5547 82.3203 34.5547C81.9557 34.5547 81.6354 34.6172 81.3594 34.7422C81.0885 34.8672 80.875 35.0312 80.7188 35.2344C80.5677 35.4375 80.4922 35.6562 80.4922 35.8906H79.0469C79.0469 35.5885 79.125 35.2891 79.2812 34.9922C79.4375 34.6953 79.6615 34.4271 79.9531 34.1875C80.25 33.9427 80.6042 33.75 81.0156 33.6094C81.4323 33.4635 81.8958 33.3906 82.4062 33.3906C83.0208 33.3906 83.5625 33.4948 84.0312 33.7031C84.5052 33.9115 84.875 34.2266 85.1406 34.6484C85.4115 35.0651 85.5469 35.5885 85.5469 36.2188V40.1562C85.5469 40.4375 85.5703 40.737 85.6172 41.0547C85.6693 41.3724 85.7448 41.6458 85.8438 41.875V42H84.3359C84.263 41.8333 84.2057 41.612 84.1641 41.3359C84.1224 41.0547 84.1016 40.7943 84.1016 40.5547ZM84.3516 36.875L84.3672 37.8906H82.9062C82.4948 37.8906 82.1276 37.9245 81.8047 37.9922C81.4818 38.0547 81.2109 38.151 80.9922 38.2812C80.7734 38.4115 80.6068 38.5755 80.4922 38.7734C80.3776 38.9661 80.3203 39.1927 80.3203 39.4531C80.3203 39.7188 80.3802 39.9609 80.5 40.1797C80.6198 40.3984 80.7995 40.5729 81.0391 40.7031C81.2839 40.8281 81.5833 40.8906 81.9375 40.8906C82.3802 40.8906 82.7708 40.7969 83.1094 40.6094C83.4479 40.4219 83.7161 40.1927 83.9141 39.9219C84.1172 39.651 84.2266 39.388 84.2422 39.1328L84.8594 39.8281C84.8229 40.0469 84.724 40.2891 84.5625 40.5547C84.401 40.8203 84.1849 41.0755 83.9141 41.3203C83.6484 41.5599 83.3307 41.7604 82.9609 41.9219C82.5964 42.0781 82.1849 42.1562 81.7266 42.1562C81.1536 42.1562 80.651 42.0443 80.2188 41.8203C79.7917 41.5964 79.4583 41.2969 79.2188 40.9219C78.9844 40.5417 78.8672 40.1172 78.8672 39.6484C78.8672 39.1953 78.9557 38.7969 79.1328 38.4531C79.3099 38.1042 79.5651 37.8151 79.8984 37.5859C80.2318 37.3516 80.6328 37.1745 81.1016 37.0547C81.5703 36.9349 82.0938 36.875 82.6719 36.875H84.3516ZM92.7422 39.7578C92.7422 39.5495 92.6953 39.3568 92.6016 39.1797C92.513 38.9974 92.3281 38.8333 92.0469 38.6875C91.7708 38.5365 91.3542 38.4062 90.7969 38.2969C90.3281 38.1979 89.9036 38.0807 89.5234 37.9453C89.1484 37.8099 88.8281 37.6458 88.5625 37.4531C88.3021 37.2604 88.1016 37.0339 87.9609 36.7734C87.8203 36.513 87.75 36.2083 87.75 35.8594C87.75 35.526 87.8229 35.2109 87.9688 34.9141C88.1198 34.6172 88.3307 34.3542 88.6016 34.125C88.8776 33.8958 89.2083 33.7161 89.5938 33.5859C89.9792 33.4557 90.4089 33.3906 90.8828 33.3906C91.5599 33.3906 92.138 33.5104 92.6172 33.75C93.0964 33.9896 93.4635 34.3099 93.7188 34.7109C93.974 35.1068 94.1016 35.5469 94.1016 36.0312H92.6562C92.6562 35.7969 92.5859 35.5703 92.4453 35.3516C92.3099 35.1276 92.1094 34.9427 91.8438 34.7969C91.5833 34.651 91.263 34.5781 90.8828 34.5781C90.4818 34.5781 90.1562 34.6406 89.9062 34.7656C89.6615 34.8854 89.4818 35.0391 89.3672 35.2266C89.2578 35.4141 89.2031 35.612 89.2031 35.8203C89.2031 35.9766 89.2292 36.1172 89.2812 36.2422C89.3385 36.362 89.4375 36.474 89.5781 36.5781C89.7188 36.6771 89.9167 36.7708 90.1719 36.8594C90.4271 36.9479 90.7526 37.0365 91.1484 37.125C91.8411 37.2812 92.4115 37.4688 92.8594 37.6875C93.3073 37.9062 93.6406 38.1745 93.8594 38.4922C94.0781 38.8099 94.1875 39.1953 94.1875 39.6484C94.1875 40.0182 94.1094 40.3568 93.9531 40.6641C93.8021 40.9714 93.5807 41.237 93.2891 41.4609C93.0026 41.6797 92.6589 41.8516 92.2578 41.9766C91.862 42.0964 91.4167 42.1562 90.9219 42.1562C90.1771 42.1562 89.5469 42.0234 89.0312 41.7578C88.5156 41.4922 88.125 41.1484 87.8594 40.7266C87.5938 40.3047 87.4609 39.8594 87.4609 39.3906H88.9141C88.9349 39.7865 89.0495 40.1016 89.2578 40.3359C89.4661 40.5651 89.7214 40.7292 90.0234 40.8281C90.3255 40.9219 90.625 40.9688 90.9219 40.9688C91.3177 40.9688 91.6484 40.9167 91.9141 40.8125C92.1849 40.7083 92.3906 40.5651 92.5312 40.3828C92.6719 40.2005 92.7422 39.9922 92.7422 39.7578Z" fill="#C4C4CC"/>
<path fill-rule="evenodd" clip-rule="evenodd" d="M312 29C305.925 29 301 33.9249 301 40C301 46.0751 305.925 51 312 51C318.075 51 323 46.0751 323 40C323 33.9249 318.075 29 312 29ZM299 40C299 32.8203 304.82 27 312 27C319.18 27 325 32.8203 325 40C325 47.1797 319.18 53 312 53C304.82 53 299 47.1797 299 40Z" fill="#00B37E"/>
<path fill-rule="evenodd" clip-rule="evenodd" d="M312 34C312.265 34 312.52 34.1054 312.707 34.2929L316.945 38.5304C317.335 38.9209 317.335 39.5541 316.945 39.9446C316.554 40.3351 315.921 40.3351 315.53 39.9446L312 36.4142L308.47 39.9446C308.079 40.3351 307.446 40.3351 307.055 39.9446C306.665 39.5541 306.665 38.9209 307.055 38.5304L311.293 34.2929C311.48 34.1054 311.735 34 312 34Z" fill="#00B37E"/>
<path fill-rule="evenodd" clip-rule="evenodd" d="M312 34C312.552 34 313 34.4477 313 35L313 45C313 45.5523 312.552 46 312 46C311.448 46 311 45.5523 311 45L311 35C311 34.4477 311.448 34 312 34Z" fill="#00B37E"/>
<path d="M34.0312 78.25H42.5156C44.2552 78.25 45.75 78.5104 47 79.0312C48.2604 79.5521 49.2292 80.3229 49.9062 81.3438C50.5833 82.3646 50.9219 83.6198 50.9219 85.1094C50.9219 86.3281 50.7135 87.375 50.2969 88.25C49.8906 89.1146 49.3125 89.8385 48.5625 90.4219C47.8229 90.9948 46.9531 91.4531 45.9531 91.7969L44.4688 92.5781H37.0938L37.0625 88.9219H42.5469C43.3698 88.9219 44.0521 88.776 44.5938 88.4844C45.1354 88.1927 45.5417 87.7865 45.8125 87.2656C46.0938 86.7448 46.2344 86.1406 46.2344 85.4531C46.2344 84.724 46.099 84.0938 45.8281 83.5625C45.5573 83.0312 45.1458 82.625 44.5938 82.3438C44.0417 82.0625 43.349 81.9219 42.5156 81.9219H38.7188V101H34.0312V78.25ZM46.75 101L41.5625 90.8594L46.5156 90.8281L51.7656 100.781V101H46.75ZM63.4531 74.6406V79.25H61.0156V74.6406H63.4531ZM63.1562 100.156V104.359H60.7188V100.156H63.1562ZM64.875 95.0312C64.875 94.4375 64.7656 93.9323 64.5469 93.5156C64.3385 93.099 63.9948 92.7292 63.5156 92.4062C63.0469 92.0833 62.4115 91.7708 61.6094 91.4688C60.2552 90.9479 59.0625 90.3958 58.0312 89.8125C57.0104 89.2188 56.2135 88.4844 55.6406 87.6094C55.0677 86.724 54.7812 85.6042 54.7812 84.25C54.7812 82.9583 55.0885 81.8385 55.7031 80.8906C56.3177 79.9427 57.1667 79.2135 58.25 78.7031C59.3438 78.1823 60.6146 77.9219 62.0625 77.9219C63.1667 77.9219 64.1667 78.0885 65.0625 78.4219C65.9583 78.7448 66.7292 79.224 67.375 79.8594C68.0208 80.4844 68.5156 81.25 68.8594 82.1562C69.2031 83.0625 69.375 84.099 69.375 85.2656H64.8906C64.8906 84.6406 64.8229 84.0885 64.6875 83.6094C64.5521 83.1302 64.3542 82.7292 64.0938 82.4062C63.8438 82.0833 63.5417 81.8438 63.1875 81.6875C62.8333 81.5208 62.4427 81.4375 62.0156 81.4375C61.3802 81.4375 60.8594 81.5625 60.4531 81.8125C60.0469 82.0625 59.75 82.401 59.5625 82.8281C59.3854 83.2448 59.2969 83.724 59.2969 84.2656C59.2969 84.7969 59.3906 85.2604 59.5781 85.6562C59.776 86.0521 60.1146 86.4167 60.5938 86.75C61.0729 87.0729 61.7292 87.4062 62.5625 87.75C63.9167 88.2708 65.1042 88.8333 66.125 89.4375C67.1458 90.0417 67.9427 90.7812 68.5156 91.6562C69.0885 92.5312 69.375 93.6458 69.375 95C69.375 96.3438 69.0625 97.4896 68.4375 98.4375C67.8125 99.375 66.9375 100.094 65.8125 100.594C64.6875 101.083 63.3854 101.328 61.9062 101.328C60.9479 101.328 59.9948 101.203 59.0469 100.953C58.099 100.693 57.2396 100.276 56.4688 99.7031C55.6979 99.1302 55.0833 98.3698 54.625 97.4219C54.1667 96.4635 53.9375 95.2865 53.9375 93.8906H58.4375C58.4375 94.651 58.5365 95.2865 58.7344 95.7969C58.9323 96.2969 59.1927 96.6979 59.5156 97C59.849 97.2917 60.224 97.5 60.6406 97.625C61.0573 97.75 61.4792 97.8125 61.9062 97.8125C62.5729 97.8125 63.1198 97.6927 63.5469 97.4531C63.9844 97.2135 64.3125 96.8854 64.5312 96.4688C64.7604 96.0417 64.875 95.5625 64.875 95.0312ZM91.375 78.2031V101H86.875V83.3906L81.4688 85.1094V81.5625L90.8906 78.2031H91.375ZM114.234 78.25V80.6719L105.438 101H100.688L109.484 81.7656H98.1562V78.25H114.234ZM117.562 98.8281C117.562 98.1615 117.792 97.6042 118.25 97.1562C118.719 96.7083 119.339 96.4844 120.109 96.4844C120.88 96.4844 121.495 96.7083 121.953 97.1562C122.422 97.6042 122.656 98.1615 122.656 98.8281C122.656 99.4948 122.422 100.052 121.953 100.5C121.495 100.948 120.88 101.172 120.109 101.172C119.339 101.172 118.719 100.948 118.25 100.5C117.792 100.052 117.562 99.4948 117.562 98.8281ZM142.375 92.5V96.0312H125.984L125.766 93.2969L135.25 78.25H138.828L134.953 84.7344L130.234 92.5H142.375ZM139.797 78.25V101H135.297V78.25H139.797ZM160.125 87.625V91.5625C160.125 93.2708 159.943 94.7448 159.578 95.9844C159.214 97.2135 158.688 98.224 158 99.0156C157.323 99.7969 156.516 100.375 155.578 100.75C154.641 101.125 153.599 101.312 152.453 101.312C151.536 101.312 150.682 101.198 149.891 100.969C149.099 100.729 148.385 100.359 147.75 99.8594C147.125 99.3594 146.583 98.7292 146.125 97.9688C145.677 97.1979 145.333 96.2812 145.094 95.2188C144.854 94.1562 144.734 92.9375 144.734 91.5625V87.625C144.734 85.9167 144.917 84.4531 145.281 83.2344C145.656 82.0052 146.182 81 146.859 80.2188C147.547 79.4375 148.359 78.8646 149.297 78.5C150.234 78.125 151.276 77.9375 152.422 77.9375C153.339 77.9375 154.188 78.0573 154.969 78.2969C155.76 78.526 156.474 78.8854 157.109 79.375C157.745 79.8646 158.286 80.4948 158.734 81.2656C159.182 82.026 159.526 82.9375 159.766 84C160.005 85.0521 160.125 86.2604 160.125 87.625ZM155.609 92.1562V87.0156C155.609 86.1927 155.562 85.474 155.469 84.8594C155.385 84.2448 155.255 83.724 155.078 83.2969C154.901 82.8594 154.682 82.5052 154.422 82.2344C154.161 81.9635 153.865 81.7656 153.531 81.6406C153.198 81.5156 152.828 81.4531 152.422 81.4531C151.911 81.4531 151.458 81.5521 151.062 81.75C150.677 81.9479 150.349 82.2656 150.078 82.7031C149.807 83.1302 149.599 83.7031 149.453 84.4219C149.318 85.1302 149.25 85.9948 149.25 87.0156V92.1562C149.25 92.9792 149.292 93.7031 149.375 94.3281C149.469 94.9531 149.604 95.4896 149.781 95.9375C149.969 96.375 150.188 96.7344 150.438 97.0156C150.698 97.2865 150.995 97.4844 151.328 97.6094C151.672 97.7344 152.047 97.7969 152.453 97.7969C152.953 97.7969 153.396 97.6979 153.781 97.5C154.177 97.2917 154.51 96.9688 154.781 96.5312C155.062 96.0833 155.271 95.5 155.406 94.7812C155.542 94.0625 155.609 93.1875 155.609 92.1562ZM178.5 87.625V91.5625C178.5 93.2708 178.318 94.7448 177.953 95.9844C177.589 97.2135 177.062 98.224 176.375 99.0156C175.698 99.7969 174.891 100.375 173.953 100.75C173.016 101.125 171.974 101.312 170.828 101.312C169.911 101.312 169.057 101.198 168.266 100.969C167.474 100.729 166.76 100.359 166.125 99.8594C165.5 99.3594 164.958 98.7292 164.5 97.9688C164.052 97.1979 163.708 96.2812 163.469 95.2188C163.229 94.1562 163.109 92.9375 163.109 91.5625V87.625C163.109 85.9167 163.292 84.4531 163.656 83.2344C164.031 82.0052 164.557 81 165.234 80.2188C165.922 79.4375 166.734 78.8646 167.672 78.5C168.609 78.125 169.651 77.9375 170.797 77.9375C171.714 77.9375 172.562 78.0573 173.344 78.2969C174.135 78.526 174.849 78.8854 175.484 79.375C176.12 79.8646 176.661 80.4948 177.109 81.2656C177.557 82.026 177.901 82.9375 178.141 84C178.38 85.0521 178.5 86.2604 178.5 87.625ZM173.984 92.1562V87.0156C173.984 86.1927 173.938 85.474 173.844 84.8594C173.76 84.2448 173.63 83.724 173.453 83.2969C173.276 82.8594 173.057 82.5052 172.797 82.2344C172.536 81.9635 172.24 81.7656 171.906 81.6406C171.573 81.5156 171.203 81.4531 170.797 81.4531C170.286 81.4531 169.833 81.5521 169.438 81.75C169.052 81.9479 168.724 82.2656 168.453 82.7031C168.182 83.1302 167.974 83.7031 167.828 84.4219C167.693 85.1302 167.625 85.9948 167.625 87.0156V92.1562C167.625 92.9792 167.667 93.7031 167.75 94.3281C167.844 94.9531 167.979 95.4896 168.156 95.9375C168.344 96.375 168.562 96.7344 168.812 97.0156C169.073 97.2865 169.37 97.4844 169.703 97.6094C170.047 97.7344 170.422 97.7969 170.828 97.7969C171.328 97.7969 171.771 97.6979 172.156 97.5C172.552 97.2917 172.885 96.9688 173.156 96.5312C173.438 96.0833 173.646 95.5 173.781 94.7812C173.917 94.0625 173.984 93.1875 173.984 92.1562ZM186.016 97.2031L186 100.219C186 101.375 185.708 102.542 185.125 103.719C184.552 104.896 183.823 105.859 182.938 106.609L180.594 105.406C180.854 104.927 181.109 104.448 181.359 103.969C181.609 103.49 181.818 102.964 181.984 102.391C182.151 101.818 182.234 101.167 182.234 100.438V97.2031H186.016ZM204.75 87.625V91.5625C204.75 93.2708 204.568 94.7448 204.203 95.9844C203.839 97.2135 203.312 98.224 202.625 99.0156C201.948 99.7969 201.141 100.375 200.203 100.75C199.266 101.125 198.224 101.312 197.078 101.312C196.161 101.312 195.307 101.198 194.516 100.969C193.724 100.729 193.01 100.359 192.375 99.8594C191.75 99.3594 191.208 98.7292 190.75 97.9688C190.302 97.1979 189.958 96.2812 189.719 95.2188C189.479 94.1562 189.359 92.9375 189.359 91.5625V87.625C189.359 85.9167 189.542 84.4531 189.906 83.2344C190.281 82.0052 190.807 81 191.484 80.2188C192.172 79.4375 192.984 78.8646 193.922 78.5C194.859 78.125 195.901 77.9375 197.047 77.9375C197.964 77.9375 198.812 78.0573 199.594 78.2969C200.385 78.526 201.099 78.8854 201.734 79.375C202.37 79.8646 202.911 80.4948 203.359 81.2656C203.807 82.026 204.151 82.9375 204.391 84C204.63 85.0521 204.75 86.2604 204.75 87.625ZM200.234 92.1562V87.0156C200.234 86.1927 200.188 85.474 200.094 84.8594C200.01 84.2448 199.88 83.724 199.703 83.2969C199.526 82.8594 199.307 82.5052 199.047 82.2344C198.786 81.9635 198.49 81.7656 198.156 81.6406C197.823 81.5156 197.453 81.4531 197.047 81.4531C196.536 81.4531 196.083 81.5521 195.688 81.75C195.302 81.9479 194.974 82.2656 194.703 82.7031C194.432 83.1302 194.224 83.7031 194.078 84.4219C193.943 85.1302 193.875 85.9948 193.875 87.0156V92.1562C193.875 92.9792 193.917 93.7031 194 94.3281C194.094 94.9531 194.229 95.4896 194.406 95.9375C194.594 96.375 194.812 96.7344 195.062 97.0156C195.323 97.2865 195.62 97.4844 195.953 97.6094C196.297 97.7344 196.672 97.7969 197.078 97.7969C197.578 97.7969 198.021 97.6979 198.406 97.5C198.802 97.2917 199.135 96.9688 199.406 96.5312C199.688 96.0833 199.896 95.5 200.031 94.7812C200.167 94.0625 200.234 93.1875 200.234 92.1562ZM223.125 87.625V91.5625C223.125 93.2708 222.943 94.7448 222.578 95.9844C222.214 97.2135 221.688 98.224 221 99.0156C220.323 99.7969 219.516 100.375 218.578 100.75C217.641 101.125 216.599 101.312 215.453 101.312C214.536 101.312 213.682 101.198 212.891 100.969C212.099 100.729 211.385 100.359 210.75 99.8594C210.125 99.3594 209.583 98.7292 209.125 97.9688C208.677 97.1979 208.333 96.2812 208.094 95.2188C207.854 94.1562 207.734 92.9375 207.734 91.5625V87.625C207.734 85.9167 207.917 84.4531 208.281 83.2344C208.656 82.0052 209.182 81 209.859 80.2188C210.547 79.4375 211.359 78.8646 212.297 78.5C213.234 78.125 214.276 77.9375 215.422 77.9375C216.339 77.9375 217.188 78.0573 217.969 78.2969C218.76 78.526 219.474 78.8854 220.109 79.375C220.745 79.8646 221.286 80.4948 221.734 81.2656C222.182 82.026 222.526 82.9375 222.766 84C223.005 85.0521 223.125 86.2604 223.125 87.625ZM218.609 92.1562V87.0156C218.609 86.1927 218.562 85.474 218.469 84.8594C218.385 84.2448 218.255 83.724 218.078 83.2969C217.901 82.8594 217.682 82.5052 217.422 82.2344C217.161 81.9635 216.865 81.7656 216.531 81.6406C216.198 81.5156 215.828 81.4531 215.422 81.4531C214.911 81.4531 214.458 81.5521 214.062 81.75C213.677 81.9479 213.349 82.2656 213.078 82.7031C212.807 83.1302 212.599 83.7031 212.453 84.4219C212.318 85.1302 212.25 85.9948 212.25 87.0156V92.1562C212.25 92.9792 212.292 93.7031 212.375 94.3281C212.469 94.9531 212.604 95.4896 212.781 95.9375C212.969 96.375 213.188 96.7344 213.438 97.0156C213.698 97.2865 213.995 97.4844 214.328 97.6094C214.672 97.7344 215.047 97.7969 215.453 97.7969C215.953 97.7969 216.396 97.6979 216.781 97.5C217.177 97.2917 217.51 96.9688 217.781 96.5312C218.062 96.0833 218.271 95.5 218.406 94.7812C218.542 94.0625 218.609 93.1875 218.609 92.1562Z" fill="#E1E1E6"/>
</svg>
