<svg width="41" height="39" viewBox="0 0 41 39" fill="none" xmlns="http://www.w3.org/2000/svg">
<path opacity="0.5" d="M40.0652 0.756714L30.2601 35.4917C30.2102 35.6494 30.0108 35.6967 29.8945 35.5863L23.3301 29.3583L28.2492 11.9514C28.2991 11.7937 28.1495 11.6518 27.9833 11.6991L9.63617 16.3662L3.10498 10.1697C2.98865 10.0593 3.03851 9.87011 3.20469 9.82281L39.7993 0.50444C39.9655 0.472906 40.115 0.61481 40.0652 0.756714Z" fill="#00B37E"/>
<path opacity="0.5" d="M23.3297 29.358L20.8037 38.3452C20.7538 38.5029 20.5544 38.5502 20.4381 38.4398L0.0634003 19.1251C-0.0529313 19.0147 -0.00307518 18.8255 0.163113 18.7782L9.63583 16.3658L23.3297 29.358Z" fill="#00B37E"/>
<path d="M28.2484 11.9511L23.3292 29.358L9.63533 16.3659L27.9825 11.6988C28.1487 11.6515 28.2982 11.7934 28.2484 11.9511Z" fill="#00B37E"/>
</svg>
